<?xml version="1.0" standalone="no"?>
<!DOCTYPE svg PUBLIC "-//W3C//DTD SVG 20010904//EN"
 "http://www.w3.org/TR/2001/REC-SVG-20010904/DTD/svg10.dtd">
<svg version="1.0" xmlns="http://www.w3.org/2000/svg"
 width="1280.000000pt" height="1142.000000pt" viewBox="0 0 1280.000000 1142.000000"
 preserveAspectRatio="xMidYMid meet">
<metadata>
Created by potrace 1.15, written by Peter Selinger 2001-2017
</metadata>
<g transform="translate(0.000000,1142.000000) scale(0.100000,-0.100000)"
fill="#000000" stroke="none">
<path d="M382 11400 c-98 -26 -166 -67 -236 -139 -106 -112 -152 -255 -143
-446 7 -130 27 -206 97 -369 197 -460 559 -1536 730 -2166 142 -527 160 -629
171 -965 7 -232 11 -286 33 -380 84 -374 268 -680 516 -854 135 -95 177 -112
505 -206 265 -76 617 -184 627 -194 4 -3 -104 -6 -240 -7 -175 0 -286 -5 -382
-18 -522 -68 -951 -235 -1171 -455 -76 -76 -104 -127 -148 -268 -91 -294 -230
-467 -396 -490 l-44 -6 46 -51 c101 -112 145 -207 146 -312 0 -84 -28 -152
-94 -227 -45 -51 -160 -132 -238 -167 l-51 -24 90 -83 c106 -100 177 -202 211
-304 33 -103 34 -253 1 -353 -28 -85 -69 -165 -116 -231 l-36 -50 172 -6 c150
-5 184 -10 254 -32 85 -28 181 -84 226 -133 79 -86 128 -218 128 -350 0 -59 2
-65 17 -59 47 18 224 36 298 31 111 -7 170 -30 227 -87 86 -86 100 -220 42
-417 -31 -107 -33 -102 61 -147 39 -19 66 -25 120 -25 118 1 221 54 351 184
170 170 323 421 522 858 110 239 177 364 291 536 215 325 586 710 846 877 141
90 457 260 553 296 24 9 24 9 10 -13 -94 -149 -166 -298 -204 -423 -22 -74
-27 -111 -28 -210 -1 -111 1 -124 25 -170 108 -212 374 -51 522 315 19 47 49
142 67 210 17 69 33 126 35 128 6 6 97 -256 136 -391 86 -298 103 -434 102
-802 0 -205 -5 -293 -22 -417 -37 -281 -92 -500 -191 -766 -175 -473 -242
-752 -243 -1007 -1 -187 29 -294 105 -380 39 -45 115 -84 177 -92 l47 -5 24
53 c116 249 289 352 456 273 72 -34 170 -126 246 -231 l60 -83 44 44 c92 92
200 144 320 153 85 7 153 -7 249 -52 94 -44 153 -88 261 -196 l91 -91 8 58
c33 263 206 482 435 550 68 20 214 32 300 24 41 -3 76 -6 77 -5 1 0 -9 34 -22
73 -55 163 -59 317 -11 415 60 124 200 196 379 197 37 0 67 2 67 5 0 2 -13 24
-30 47 -42 61 -64 155 -56 240 11 110 42 203 124 373 l77 160 3 111 c9 266
-110 588 -353 954 -124 188 -231 317 -420 508 -94 94 -170 172 -168 172 8 0
522 -270 671 -353 260 -143 412 -184 642 -173 263 12 511 101 776 277 82 55
147 112 264 229 197 196 354 307 800 568 546 318 1510 804 2024 1021 192 81
283 137 376 232 205 208 238 461 89 683 -227 340 -847 569 -1849 682 -222 25
-737 30 -975 10 -900 -77 -1837 -355 -2925 -866 -425 -199 -993 -514 -1412
-781 l-138 -88 0 57 c0 31 -3 66 -5 77 -4 15 3 25 34 42 71 40 141 144 141
207 0 57 -37 141 -87 196 l-46 51 44 52 c124 149 308 356 416 467 107 111 159
153 425 346 396 288 541 386 628 421 101 40 131 67 137 125 5 39 2 48 -15 57
-18 10 -28 5 -71 -33 -71 -63 -210 -167 -490 -366 -263 -187 -362 -266 -521
-417 -163 -154 -423 -444 -550 -612 l-26 -34 -51 27 c-49 24 -52 28 -47 58 33
248 49 650 35 897 -13 230 -20 279 -90 676 -56 314 -84 515 -76 537 8 21 -28
63 -48 55 -9 -3 -26 -21 -37 -39 -27 -42 -22 -94 13 -172 35 -77 65 -213 144
-671 l67 -390 0 -240 c0 -214 -14 -506 -30 -637 -5 -44 -8 -47 -29 -42 -32 8
-137 -21 -197 -53 -66 -36 -89 -81 -95 -188 -3 -44 -1 -91 5 -105 8 -22 3 -30
-47 -77 -30 -29 -56 -53 -57 -53 -1 0 -10 35 -19 78 -70 323 -219 863 -332
1207 -533 1625 -1261 2853 -2139 3609 -568 489 -1131 829 -1561 942 -139 36
-346 43 -451 14z"/>
</g>
</svg>
